<svg width="120" height="120" viewBox="0 0 120 120" fill="none" xmlns="http://www.w3.org/2000/svg">
<rect width="120" height="120" rx="60" fill="#151515"/>
<path fill-rule="evenodd" clip-rule="evenodd" d="M97.7176 53.1577C98.6621 50.5628 97.3241 47.6936 94.7293 46.7491L78.0422 40.6756C75.4473 39.7311 72.5781 41.069 71.6337 43.6639L61.7625 70.7845C60.8181 73.3794 62.156 76.2486 64.7509 77.1931L81.438 83.2667C84.0328 84.2112 86.902 82.8732 87.8465 80.2783L97.7176 53.1577ZM64.4533 75.1155C65.5737 75.5234 66.8126 74.9456 67.2204 73.8252C67.6282 72.7047 67.0505 71.4658 65.9301 71.058C64.8096 70.6502 63.5707 71.2279 63.1629 72.3484C62.7551 73.4688 63.3328 74.7077 64.4533 75.1155ZM85.9321 63.8965C84.7669 67.0978 81.2272 68.7484 78.0259 67.5832C74.8246 66.4181 73.1741 62.8784 74.3392 59.6771C75.5044 56.4758 79.0441 54.8252 82.2454 55.9904C85.4467 57.1555 87.0973 60.6953 85.9321 63.8965ZM93.5504 52.8845C94.6708 53.2923 95.9097 52.7146 96.3175 51.5941C96.7253 50.4737 96.1476 49.2348 95.0272 48.827C93.9067 48.4192 92.6678 48.9969 92.26 50.1173C91.8522 51.2378 92.4299 52.4767 93.5504 52.8845Z" fill="#F5F870"/>
<path fill-rule="evenodd" clip-rule="evenodd" d="M48.7941 43.6871C47.8496 41.0922 44.9804 39.7543 42.3855 40.6987L25.6985 46.7723C23.1036 47.7168 21.7656 50.586 22.7101 53.1809L32.5812 80.3015C33.5257 82.8964 36.3949 84.2343 38.9898 83.2899L55.6768 77.2163C58.2717 76.2718 59.6096 73.4026 58.6652 70.8077L48.7941 43.6871ZM37.4267 81.8899C38.5472 81.4821 39.1249 80.2432 38.7171 79.1228C38.3093 78.0023 37.0704 77.4246 35.9499 77.8324C34.8295 78.2402 34.2517 79.4791 34.6596 80.5996C35.0674 81.72 36.3063 82.2978 37.4267 81.8899ZM46.6688 59.4894C47.834 62.6906 46.1834 66.2304 42.9821 67.3955C39.7808 68.5607 36.2411 66.9101 35.0759 63.7088C33.9108 60.5075 35.5613 56.9678 38.7626 55.8027C41.9639 54.6375 45.5036 56.2881 46.6688 59.4894ZM45.4265 46.1565C46.5469 45.7487 47.1247 44.5098 46.7168 43.3893C46.309 42.2689 45.0701 41.6912 43.9497 42.099C42.8292 42.5068 42.2515 43.7457 42.6593 44.8661C43.0671 45.9866 44.306 46.5643 45.4265 46.1565Z" fill="#F5F870"/>
<rect x="42.4131" y="35" width="35.6888" height="49.9644" rx="5" fill="#F5F870"/>
<circle cx="47.5678" cy="79.8094" r="2.7758" fill="#151515"/>
<circle cx="47.5678" cy="79.8094" r="2.7758" fill="#151515"/>
<circle cx="60.6535" cy="59.5856" r="7.93085" fill="#151515"/>
<circle cx="60.6535" cy="59.5856" r="7.93085" fill="#151515"/>
<circle cx="72.9467" cy="40.1551" r="2.7758" fill="#151515"/>
<circle cx="72.9467" cy="40.1551" r="2.7758" fill="#151515"/>
</svg>
